<?xml version="1.0" encoding="UTF-8"?>
<svg id="Calque_2" data-name="Calque 2" xmlns="http://www.w3.org/2000/svg" viewBox="0 0 1190.68 1208.54">
  <defs>
    <style>
      .cls-1 {
        fill: #fbe405;
      }

      .cls-2 {
        fill: #0347c0;
      }

      .cls-3 {
        fill: none;
        stroke: #1d1d1b;
        stroke-linecap: round;
        stroke-miterlimit: 10;
        stroke-width: 42px;
      }

      .cls-4 {
        fill: #e00c26;
      }
    </style>
  </defs>
  <g id="Calque_1-2" data-name="Calque 1">
    <!-- Background blanc pour visibilité sur tous les fonds -->
    <circle cx="595.34" cy="604.27" r="580" fill="white" />
    <g>
      <g>
        <path class="cls-4" d="M585.9.22c241.59-6.67,460.65,139.58,554.65,358.03,122.4,284.43,14.08,615.31-252.99,770.85-349.41,203.49-781.3-4.98-871.32-386.16C-71,373.6,203.98,10.76,585.9.22ZM581.87,53.22C217.26,67.84-32.57,422.28,74.07,769.44c95.58,311.16,442.74,484.44,746.78,342.34,293.06-136.97,405.47-498.58,249.28-780.53C973.56,156.93,784.19,45.11,581.87,53.22Z"/>
        <path class="cls-1" d="M581.87,53.22c202.32-8.11,391.69,103.71,488.26,278.03,156.19,281.95,43.77,643.56-249.28,780.53-304.04,142.1-651.2-31.18-746.78-342.34C-32.57,422.28,217.26,67.84,581.87,53.22ZM587.91,106.22C239.53,116.17,8.12,467.23,131.68,791.17c95.24,249.71,371.18,388.34,628.97,295.77,261.21-93.79,394.36-388.59,302.28-648.54-70.38-198.7-260.09-338.33-475.02-332.19Z"/>
        <path class="cls-2" d="M587.91,106.22c214.93-6.14,404.65,133.49,475.02,332.19,92.08,259.95-41.07,554.74-302.28,648.54-257.8,92.57-533.73-46.07-628.97-295.77C8.12,467.23,239.53,116.17,587.91,106.22ZM575.84,159.22c-300.17,15.01-499.26,318.4-402.18,600.22,108.36,314.56,507.97,414.29,741.91,167.5,274.56-289.65,67.7-788.1-339.72-767.72Z"/>
      </g>
      <g>
        <line class="cls-3" x1="201.94" y1="774.53" x2="988.31" y2="776.81"/>
        <line class="cls-3" x1="201.94" y1="774.53" x2="596.13" y2="179.67"/>
        <line class="cls-3" x1="988.32" y1="774.53" x2="596.13" y2="179.67"/>
      </g>
    </g>
  </g>
</svg>
